<svg width="18" height="18" viewBox="0 0 18 18" fill="none" xmlns="http://www.w3.org/2000/svg">
<g id="compare-match-icon 1" clip-path="url(#clip0_2776_6176)">
<g id="Group">
<path id="Vector" d="M0.836273 3.51179H7.82484V0.833636C7.82484 0.602046 7.91903 0.391989 8.07078 0.240379C8.21888 0.0921379 8.42161 0 8.64251 0H17.1624C17.3833 0 17.5859 0.0919914 17.734 0.240379C17.8856 0.392136 17.9798 0.602046 17.9798 0.833636V13.6544C17.9798 13.8862 17.8856 14.0962 17.734 14.2478C17.5857 14.3961 17.3832 14.4882 17.1624 14.4882H10.1737V17.1664C10.1737 17.3981 10.0792 17.6082 9.92761 17.7598C9.77937 17.908 9.57678 18.0001 9.35603 18.0001H0.836273C0.615229 18.0001 0.41279 17.908 0.264549 17.7598C0.112792 17.6082 0.0186034 17.3981 0.0186034 17.1664V10.8967C0.00644526 10.8518 0 10.8046 0 10.756C0 10.707 0.00644526 10.6599 0.0186034 10.6149V4.34557C0.0186034 4.11383 0.112792 3.90378 0.264549 3.75217C0.41279 3.60393 0.615229 3.51179 0.836273 3.51179ZM13.786 4.26808C13.9903 4.05304 14.3305 4.04469 14.5453 4.24918C14.7605 4.45367 14.7687 4.79381 14.5642 5.0087L12.9658 6.68095H16.94V1.07211H8.86472V3.51179H9.35603C9.57692 3.51179 9.77951 3.60378 9.92761 3.75217C10.0792 3.90378 10.1737 4.11383 10.1737 4.34557V13.4161H16.9399V7.75819H12.9629L14.5642 9.43923C14.7687 9.65441 14.7605 9.99426 14.5453 10.1989C14.3305 10.4034 13.9903 10.3949 13.786 10.18L11.3188 7.59003C11.1225 7.38392 11.1204 7.05771 11.3188 6.84926L13.786 4.26808ZM3.36076 8.5448C3.15627 8.32977 3.16477 7.98978 3.37966 7.78529C3.5947 7.5808 3.93469 7.58929 4.13918 7.80418L6.60639 10.3854C6.80473 10.594 6.80268 10.92 6.60625 11.1261L4.13918 13.7162C3.93469 13.9311 3.5947 13.9396 3.37966 13.7351C3.16477 13.5308 3.15627 13.1907 3.36076 12.9758L4.96212 11.2943H1.05863V16.9279H9.13381V4.58375H1.05863V10.2172H4.95919L3.36076 8.5448Z" fill="black"/>
</g>
</g>
<defs>
<clipPath id="clip0_2776_6176">
<rect width="17.9796" height="18" fill="white"/>
</clipPath>
</defs>
</svg>
