<svg width="41" height="41" viewBox="0 0 41 41" fill="none" xmlns="http://www.w3.org/2000/svg">
<ellipse cx="20.4577" cy="20.5" rx="20.1257" ry="20" fill="#667080"/>
<path d="M25.9486 16.5936C25.9486 14.9837 25.3048 13.4397 24.1588 12.3014C23.0129 11.163 21.4586 10.5234 19.8379 10.5234C18.2173 10.5234 16.663 11.163 15.517 12.3014C14.371 13.4397 13.7272 14.9837 13.7272 16.5936C13.7272 23.6755 10.6719 25.6989 10.6719 25.6989H29.004C29.004 25.6989 25.9486 23.6755 25.9486 16.5936Z" stroke="white" stroke-width="2" stroke-linecap="round" stroke-linejoin="round"/>
<path d="M21.602 29.7461C21.4229 30.0527 21.1659 30.3072 20.8567 30.4842C20.5475 30.6611 20.1969 30.7542 19.84 30.7542C19.4832 30.7542 19.1326 30.6611 18.8234 30.4842C18.5142 30.3072 18.2572 30.0527 18.0781 29.7461" stroke="white" stroke-width="2" stroke-linecap="round" stroke-linejoin="round"/>
</svg>
