<svg width="41" height="40" viewBox="0 0 41 40" fill="none" xmlns="http://www.w3.org/2000/svg">
<path d="M40.5014 20C40.5014 30.7666 31.7176 39.5 20.8757 39.5C10.0338 39.5 1.25 30.7666 1.25 20C1.25 9.2334 10.0338 0.5 20.8757 0.5C31.7176 0.5 40.5014 9.2334 40.5014 20Z" fill="white" stroke="black"/>
<path d="M12.2901 21.05H10.4001V22.99H9.08012V21.05H7.19012V19.83H9.08012V17.89H10.4001V19.83H12.2901V21.05ZM17.7584 20.42C18.1517 20.4933 18.4751 20.69 18.7284 21.01C18.9817 21.33 19.1084 21.6967 19.1084 22.11C19.1084 22.4833 19.0151 22.8133 18.8284 23.1C18.6484 23.38 18.3851 23.6 18.0384 23.76C17.6917 23.92 17.2817 24 16.8084 24H13.7984V17.02H16.6784C17.1517 17.02 17.5584 17.0967 17.8984 17.25C18.2451 17.4033 18.5051 17.6167 18.6784 17.89C18.8584 18.1633 18.9484 18.4733 18.9484 18.82C18.9484 19.2267 18.8384 19.5667 18.6184 19.84C18.4051 20.1133 18.1184 20.3067 17.7584 20.42ZM15.1984 19.9H16.4784C16.8117 19.9 17.0684 19.8267 17.2484 19.68C17.4284 19.5267 17.5184 19.31 17.5184 19.03C17.5184 18.75 17.4284 18.5333 17.2484 18.38C17.0684 18.2267 16.8117 18.15 16.4784 18.15H15.1984V19.9ZM16.6084 22.86C16.9484 22.86 17.2117 22.78 17.3984 22.62C17.5917 22.46 17.6884 22.2333 17.6884 21.94C17.6884 21.64 17.5884 21.4067 17.3884 21.24C17.1884 21.0667 16.9184 20.98 16.5784 20.98H15.1984V22.86H16.6084ZM23.4642 24.07C22.8108 24.07 22.2108 23.9167 21.6642 23.61C21.1175 23.3033 20.6842 22.88 20.3642 22.34C20.0442 21.7933 19.8842 21.1767 19.8842 20.49C19.8842 19.81 20.0442 19.2 20.3642 18.66C20.6842 18.1133 21.1175 17.6867 21.6642 17.38C22.2108 17.0733 22.8108 16.92 23.4642 16.92C24.1242 16.92 24.7242 17.0733 25.2642 17.38C25.8108 17.6867 26.2408 18.1133 26.5542 18.66C26.8742 19.2 27.0342 19.81 27.0342 20.49C27.0342 21.1767 26.8742 21.7933 26.5542 22.34C26.2408 22.88 25.8108 23.3033 25.2642 23.61C24.7175 23.9167 24.1175 24.07 23.4642 24.07ZM23.4642 22.82C23.8842 22.82 24.2542 22.7267 24.5742 22.54C24.8942 22.3467 25.1442 22.0733 25.3242 21.72C25.5042 21.3667 25.5942 20.9567 25.5942 20.49C25.5942 20.0233 25.5042 19.6167 25.3242 19.27C25.1442 18.9167 24.8942 18.6467 24.5742 18.46C24.2542 18.2733 23.8842 18.18 23.4642 18.18C23.0442 18.18 22.6708 18.2733 22.3442 18.46C22.0242 18.6467 21.7742 18.9167 21.5942 19.27C21.4142 19.6167 21.3242 20.0233 21.3242 20.49C21.3242 20.9567 21.4142 21.3667 21.5942 21.72C21.7742 22.0733 22.0242 22.3467 22.3442 22.54C22.6708 22.7267 23.0442 22.82 23.4642 22.82ZM35.6857 17.02V24H34.2857V19.46L32.4157 24H31.3557L29.4757 19.46V24H28.0757V17.02H29.6657L31.8857 22.21L34.1057 17.02H35.6857Z" fill="black"/>
</svg>
