<svg width="17" height="17" viewBox="0 0 17 17" fill="none" xmlns="http://www.w3.org/2000/svg">
<mask id="mask0_12094_42280" style="mask-type:alpha" maskUnits="userSpaceOnUse" x="0" y="0" width="17" height="17">
<rect width="17" height="17" fill="#D9D9D9"/>
</mask>
<g mask="url(#mask0_12094_42280)">
<path d="M5.94935 12.043L8.49935 9.49297L11.0493 12.043L12.041 11.0513L9.49102 8.5013L12.041 5.9513L11.0493 4.95964L8.49935 7.50964L5.94935 4.95964L4.95768 5.9513L7.50768 8.5013L4.95768 11.0513L5.94935 12.043ZM8.49935 15.5846C7.51949 15.5846 6.59865 15.3987 5.73685 15.0268C4.87504 14.6549 4.12539 14.1503 3.48789 13.5128C2.85039 12.8753 2.3457 12.1256 1.97383 11.2638C1.60195 10.402 1.41602 9.48116 1.41602 8.5013C1.41602 7.52144 1.60195 6.60061 1.97383 5.7388C2.3457 4.877 2.85039 4.12734 3.48789 3.48984C4.12539 2.85234 4.87504 2.34766 5.73685 1.97578C6.59865 1.60391 7.51949 1.41797 8.49935 1.41797C9.47921 1.41797 10.4 1.60391 11.2618 1.97578C12.1237 2.34766 12.8733 2.85234 13.5108 3.48984C14.1483 4.12734 14.653 4.877 15.0249 5.7388C15.3967 6.60061 15.5827 7.52144 15.5827 8.5013C15.5827 9.48116 15.3967 10.402 15.0249 11.2638C14.653 12.1256 14.1483 12.8753 13.5108 13.5128C12.8733 14.1503 12.1237 14.6549 11.2618 15.0268C10.4 15.3987 9.47921 15.5846 8.49935 15.5846Z" fill="#667080"/>
</g>
</svg>
