<svg width="41" height="40" viewBox="0 0 41 40" fill="none" xmlns="http://www.w3.org/2000/svg">
<path d="M40.0014 20C40.0014 30.7666 31.2176 39.5 20.3757 39.5C9.53376 39.5 0.75 30.7666 0.75 20C0.75 9.2334 9.53376 0.5 20.3757 0.5C31.2176 0.5 40.0014 9.2334 40.0014 20Z" fill="white" stroke="black"/>
<path d="M20.0303 11.7402H14.0859C13.5337 11.7402 13.0859 12.1879 13.0859 12.7402V27.2606C13.0859 27.8128 13.5337 28.2606 14.0859 28.2606H14.964" stroke="black" stroke-width="1.5" stroke-linecap="round" stroke-linejoin="round"/>
<path d="M22.6875 19.8496L22.6875 14.9051" stroke="black" stroke-linecap="round"/>
<path d="M20.5625 16.9688L22.626 14.9053L24.6894 16.9687" stroke="black" stroke-linecap="round" stroke-linejoin="round"/>
<path d="M20.7236 28.2598H26.668C27.2203 28.2598 27.668 27.8121 27.668 27.2598V12.7394C27.668 12.1872 27.2203 11.7394 26.668 11.7394H25.7899" stroke="black" stroke-width="1.5" stroke-linecap="round" stroke-linejoin="round"/>
<path d="M18.0664 20.1504L18.0664 25.0949" stroke="black" stroke-linecap="round"/>
<path d="M20.1914 23.0312L18.128 25.0947L16.0645 23.0312" stroke="black" stroke-linecap="round" stroke-linejoin="round"/>
</svg>
