<svg width="41" height="40" viewBox="0 0 41 40" fill="none" xmlns="http://www.w3.org/2000/svg">
<path d="M39.7514 20C39.7514 30.7666 30.9676 39.5 20.1257 39.5C9.28376 39.5 0.5 30.7666 0.5 20C0.5 9.2334 9.28376 0.5 20.1257 0.5C30.9676 0.5 39.7514 9.2334 39.7514 20Z" fill="white" stroke="black"/>
<path d="M26.303 12.3945V12.3945C27.7542 12.3945 28.9307 13.571 28.9307 15.0222V25.8047C28.9307 27.4616 27.5875 28.8047 25.9307 28.8047H14.3203C12.6635 28.8047 11.3203 27.4616 11.3203 25.8047V15.3945C11.3203 13.7377 12.6635 12.3945 14.3203 12.3945H14.445" stroke="black" stroke-width="1.5"/>
<rect x="15.8711" y="10.7227" width="8.70589" height="3.34375" rx="1.67188" stroke="black" stroke-width="1.5"/>
<path d="M14.7031 18.499L16.1066 19.6214L18.7276 17.5254" stroke="black" stroke-width="1.5"/>
<path d="M14.7031 22.5518L16.1066 23.6742L18.7276 21.5781" stroke="black" stroke-width="1.5"/>
<path d="M20.8594 18.7969H26.2367" stroke="black" stroke-width="1.5"/>
<path d="M20.8594 22.8262H26.2367" stroke="black" stroke-width="1.5"/>
</svg>
