<svg width="58" height="76" viewBox="0 0 58 76" fill="none" xmlns="http://www.w3.org/2000/svg">
<path d="M47.3346 22.9583C43.9888 22.9583 40.8263 21.634 38.443 19.2593C36.0596 16.8847 34.7305 13.7337 34.7305 10.4V0.125H6.08464C4.57214 0.125 3.10547 0.718666 2.0513 1.81467C0.951302 2.865 0.355469 4.32633 0.355469 5.83333V69.7667C0.355469 71.2737 0.951302 72.735 2.0513 73.7853C3.10547 74.8813 4.57214 75.475 6.08464 75.475H51.918C53.4305 75.475 54.8971 74.8813 55.9513 73.7853C57.0513 72.735 57.6471 71.2737 57.6471 69.7667V22.9583H47.3346ZM38.168 68.625H19.8346C17.9555 68.625 16.3971 67.0723 16.3971 65.2C16.3971 63.3277 17.9555 61.775 19.8346 61.775H38.168C40.0471 61.775 41.6055 63.3277 41.6055 65.2C41.6055 67.0723 40.0471 68.625 38.168 68.625ZM41.1471 45.335C40.4596 46.02 39.5888 46.3397 38.718 46.3397C37.8471 46.3397 36.9763 46.02 36.2888 45.335L32.4388 41.499V51.774C32.4388 53.6463 30.8805 55.199 29.0013 55.199C27.1221 55.199 25.5638 53.6463 25.5638 51.774V41.499L21.7138 45.335C21.0263 46.02 20.1555 46.3397 19.2846 46.3397C18.4138 46.3397 17.543 46.02 16.8555 45.335C15.5263 44.0107 15.5263 41.8187 16.8555 40.4943L26.5721 30.813C26.893 30.4933 27.2596 30.265 27.6721 30.0823C28.543 29.717 29.4596 29.717 30.3305 30.0823C30.743 30.265 31.1096 30.4933 31.4305 30.813L41.1471 40.4943C42.4763 41.8187 42.4763 44.0107 41.1471 45.335Z" fill="#667080"/>
</svg>
