<svg width="43" height="56" viewBox="0 0 43 56" fill="none" xmlns="http://www.w3.org/2000/svg">
<g id="Group">
<path id="Vector" d="M28.3 1.5C27.3 0.5 25.9 0 24.5 0H9.5C4.3 0 0 4.3 0 9.5V46.5C0 51.7 4.3 56 9.5 56H33.5C38.7 56 43 51.7 43 46.5V17.7C43 16.2 42.4 14.7 41.3 13.7L28.3 1.5ZM37.7 14.5H30.1C28.7 14.5 27.6 13.4 27.6 12V5L37.7 14.5ZM40 46.5C40 50.1 37.1 53 33.5 53H9.5C5.9 53 3 50.1 3 46.5V9.5C3 5.9 5.9 3 9.5 3H24.5H24.6V12C24.6 15 27.1 17.5 30.1 17.5H40C40 17.6 40 17.6 40 17.7V46.5Z" fill="black"/>
<path id="Vector_2" d="M34.5 24.5H14.5V27.5H34.5V24.5Z" fill="black"/>
<path id="Vector_3" d="M34.5 32.5H14.5V35.5H34.5V32.5Z" fill="black"/>
<path id="Vector_4" d="M34.5 40.5H14.5V43.5H34.5V40.5Z" fill="black"/>
<path id="Vector_5" d="M12 24.5H9V27.5H12V24.5Z" fill="black"/>
<path id="Vector_6" d="M12 32.5H9V35.5H12V32.5Z" fill="black"/>
<path id="Vector_7" d="M12 40.5H9V43.5H12V40.5Z" fill="black"/>
</g>
</svg>
