<svg width="224" height="47" viewBox="0 0 224 47" fill="none" xmlns="http://www.w3.org/2000/svg">
<path d="M187.586 38.0974L185.437 35.9491L192.184 29.202L181.762 18.7792L183.91 16.6309L196.498 29.202L187.586 38.0974Z" fill="#676868"/>
<path d="M184.581 31.7685C186.193 31.7685 187.501 30.461 187.501 28.8481C187.501 27.2352 186.193 25.9277 184.581 25.9277C182.968 25.9277 181.66 27.2352 181.66 28.8481C181.66 30.461 182.968 31.7685 184.581 31.7685Z" fill="#676868"/>
<path d="M213.631 41.8232L201.043 29.2353L209.955 20.3398L212.104 22.4882L205.356 29.2353L215.779 39.6748L213.631 41.8232Z" fill="#676868"/>
<path d="M210.043 29.6049C210.043 27.9937 211.352 26.6845 212.98 26.7013C214.591 26.7013 215.901 28.0105 215.884 29.6217C215.884 31.233 214.575 32.5253 212.963 32.5253C211.352 32.5253 210.043 31.233 210.043 29.6049Z" fill="#676868"/>
<path d="M188.321 46.2374L186.156 44.0723L198.744 31.4844L207.656 40.3966L205.508 42.5449L198.744 35.7978L188.321 46.2374Z" fill="#808080"/>
<path d="M198.409 40.4961C200.02 40.4961 201.329 41.8052 201.329 43.4165C201.329 45.0277 200.02 46.3369 198.409 46.3369C196.797 46.3369 195.488 45.0277 195.488 43.4165C195.488 41.8052 196.781 40.4961 198.409 40.4961Z" fill="#808080"/>
<g opacity="0.5" filter="url(#filter0_f_857_3150)">
<path d="M198.795 26.9511L189.883 18.0556L192.031 15.8905L198.795 22.6376L209.218 12.2148L211.383 14.3632L198.795 26.9511Z" fill="#808080"/>
<path d="M199.147 17.956C197.536 17.956 196.227 16.6469 196.227 15.0356C196.227 13.4244 197.536 12.1152 199.147 12.1152C200.758 12.1152 202.067 13.4244 202.067 15.0356C202.067 16.6469 200.758 17.956 199.147 17.956Z" fill="#808080"/>
</g>
<path d="M198.795 26.9511L189.883 18.0556L192.031 15.8905L198.795 22.6376L209.218 12.2148L211.383 14.3632L198.795 26.9511Z" fill="#808080"/>
<path d="M199.147 17.956C197.536 17.956 196.227 16.6469 196.227 15.0356C196.227 13.4244 197.536 12.1152 199.147 12.1152C200.758 12.1152 202.067 13.4244 202.067 15.0356C202.067 16.6469 200.758 17.956 199.147 17.956Z" fill="#808080"/>
<path d="M80.9436 25.834V27.0423H77.0869V37.1888H75.6965V27.0589H71.8398V25.8505H80.9436V25.834Z" fill="#6F7072"/>
<path d="M89.8828 27.0589H83.3446V30.6672H89.2538V31.8756H83.3446V35.964H89.8331V37.1723H82.0039V25.834H89.8993V27.0423L89.8828 27.0589Z" fill="#6F7072"/>
<path d="M92.2935 35.8298C91.3169 34.7705 90.8203 33.3139 90.8203 31.5097C90.8203 29.7055 91.3169 28.2655 92.2935 27.1896C93.27 26.1302 94.528 25.584 96.0674 25.584C98.4509 25.584 100.338 26.8751 100.901 29.4903H99.5433C99.0468 27.6199 97.7392 26.8089 96.0674 26.8089C94.9087 26.8089 93.9818 27.2227 93.27 28.0503C92.5583 28.8944 92.2107 30.0365 92.2107 31.5097C92.2107 32.9828 92.5583 34.125 93.27 34.9526C93.9818 35.7967 94.8922 36.2105 96.0674 36.2105C96.9446 36.2105 97.706 35.9457 98.3847 35.3995C99.0633 34.8698 99.4771 34.0918 99.6096 33.0491H100.95C100.818 34.456 100.272 35.5319 99.3447 36.2767C98.4012 37.0382 97.3253 37.4354 96.0674 37.4354C94.528 37.4354 93.27 36.9057 92.2935 35.8298Z" fill="#6F7072"/>
<path d="M110.137 25.834H111.478V37.1723H110.137V31.9418H103.798V37.1723H102.457V25.834H103.798V30.7004H110.137V25.834Z" fill="#6F7072"/>
<path d="M121.757 31.3451H126.59V37.1715H125.497L125.216 35.6321C124.372 36.8239 123.131 37.4198 121.508 37.4198C119.886 37.4198 118.595 36.8736 117.619 35.7811C116.625 34.6887 116.129 33.2652 116.129 31.4941C116.129 29.723 116.625 28.2829 117.602 27.1905C118.579 26.098 119.886 25.5684 121.525 25.5684C122.882 25.5684 123.991 25.9325 124.869 26.6608C125.746 27.3726 126.292 28.3491 126.474 29.5575H125.084C124.951 28.7133 124.537 28.0512 123.875 27.5546C123.23 27.0581 122.419 26.8263 121.525 26.8263C120.317 26.8263 119.34 27.2567 118.628 28.1009C117.917 28.945 117.536 30.0871 117.536 31.5272C117.536 32.9672 117.9 34.1093 118.628 34.9535C119.34 35.7977 120.317 36.228 121.525 36.228C122.584 36.228 123.511 35.8804 124.273 35.2018C125.017 34.5231 125.398 33.6624 125.398 32.5865H121.79V31.3782L121.757 31.3451Z" fill="#6F7072"/>
<path d="M136.935 35.7322C136.984 36.3447 137.1 36.8247 137.349 37.1888H135.958C135.726 36.8578 135.611 36.3612 135.594 35.6826L135.544 34.4743C135.478 32.9349 134.899 32.3556 133.525 32.3556H129.817V37.1888H128.477V25.834H133.277C135.561 25.834 137.117 26.9595 137.117 28.9293C137.117 30.3528 136.389 31.3128 135.246 31.6769C136.223 31.9749 136.736 32.7363 136.819 33.9115L136.918 35.7488L136.935 35.7322ZM133.442 31.1307C134.833 31.1307 135.726 30.4024 135.726 29.012C135.726 27.6216 134.8 27.0423 133.277 27.0423H129.817V31.1307H133.426H133.442Z" fill="#6F7072"/>
<path d="M143.754 37.4354C142.116 37.4354 140.808 36.8892 139.815 35.7967C138.805 34.7043 138.309 33.2808 138.309 31.5097C138.309 29.7386 138.805 28.2986 139.815 27.2061C140.808 26.1137 142.099 25.584 143.754 25.584C145.41 25.584 146.701 26.1302 147.71 27.2061C148.703 28.2986 149.2 29.7386 149.2 31.5097C149.2 33.2808 148.703 34.7043 147.71 35.7967C146.701 36.9057 145.393 37.4354 143.754 37.4354ZM143.754 36.2105C144.979 36.2105 145.956 35.7802 146.684 34.936C147.412 34.0918 147.776 32.9497 147.776 31.5097C147.776 30.0696 147.412 28.9275 146.684 28.0834C145.956 27.2392 144.979 26.8089 143.754 26.8089C142.529 26.8089 141.553 27.2392 140.825 28.0834C140.096 28.9275 139.732 30.0696 139.732 31.5097C139.732 32.9497 140.096 34.0918 140.825 34.936C141.553 35.7967 142.529 36.2105 143.754 36.2105Z" fill="#6F7072"/>
<path d="M155.078 37.4206C153.654 37.4206 152.562 37.0399 151.784 36.2619C151.006 35.484 150.625 34.3915 150.625 32.9846V25.834H151.966V32.9846C151.966 35.1364 152.992 36.2123 155.094 36.2123C157.196 36.2123 158.223 35.1198 158.223 32.9846V25.834H159.563V32.9846C159.563 34.4081 159.183 35.484 158.405 36.2619C157.61 37.0399 156.501 37.4206 155.094 37.4206H155.078Z" fill="#6F7072"/>
<path d="M166.167 25.834C168.616 25.834 169.924 27.2244 169.924 29.3265C169.924 31.4287 168.6 32.819 166.167 32.819H162.79V37.1888H161.449V25.834H166.167ZM166.167 31.5942C167.739 31.5942 168.55 30.7831 168.55 29.31C168.55 27.8368 167.756 27.0257 166.167 27.0257H162.79V31.5942H166.167Z" fill="#6F7072"/>
<path d="M171.781 21.6797V21.928H171.019V23.9473H170.738V21.928H169.977V21.6797H171.781Z" fill="#6F7072"/>
<path d="M173.914 21.6797H174.262V23.9473H174.014V23.219C174.014 22.739 174.014 22.3583 174.014 22.0604C173.964 22.1928 173.898 22.3749 173.815 22.5735L173.269 23.9308H173.037L172.474 22.5735C172.391 22.3749 172.325 22.1928 172.276 22.0604C172.276 22.3418 172.276 22.739 172.276 23.219V23.9473H172.027V21.6797H172.375L172.905 22.9708C172.987 23.1528 173.07 23.368 173.153 23.6163C173.285 23.2522 173.385 23.037 173.418 22.9211L173.914 21.6797Z" fill="#6F7072"/>
<path d="M172.177 25.8995C173.887 25.8995 175.273 24.5137 175.273 22.8043C175.273 21.0948 173.887 19.709 172.177 19.709C170.468 19.709 169.082 21.0948 169.082 22.8043C169.082 24.5137 170.468 25.8995 172.177 25.8995Z" stroke="#6F7072" stroke-miterlimit="10"/>
<path d="M7.05128 21.2148C10.6597 21.2148 12.7287 23.2673 12.7287 26.4454C12.7287 29.6234 10.6597 31.6428 7.05128 31.6428H3.04564V37.2374H0V21.2148H7.05128ZM6.91886 29.011C8.70651 29.011 9.66654 28.1171 9.66654 26.4123C9.66654 24.7074 8.68995 23.797 6.91886 23.797H3.04564V28.9944H6.91886V29.011Z" fill="#808080"/>
<path d="M24.7442 32.3045H16.0542C16.2529 34.3074 17.3618 35.3005 19.0667 35.3005C20.3744 35.3005 21.2516 34.7377 21.7151 33.6453H24.4462C23.8338 36.0122 21.8144 37.5185 19.0502 37.5185C17.3288 37.5185 15.9218 36.9557 14.879 35.8633C13.8197 34.7708 13.2734 33.2977 13.2734 31.4438C13.2734 29.59 13.8031 28.1665 14.8459 27.0244C15.9052 25.9319 17.2791 25.3691 19.0005 25.3691C20.722 25.3691 22.1454 25.9485 23.1717 27.0906C24.1979 28.2327 24.7276 29.772 24.7276 31.6259V32.3045H24.7442ZM16.0873 30.3183H21.9137C21.6654 28.6299 20.6392 27.554 19.0005 27.554C17.4446 27.554 16.3522 28.4644 16.0873 30.3183Z" fill="#808080"/>
<path d="M31.9795 37.4863C30.1918 37.4863 28.7849 36.9236 27.709 35.8311C26.6 34.7387 26.0703 33.2489 26.0703 31.4282C26.0703 29.6074 26.6165 28.1177 27.709 27.0087C28.7849 25.9163 30.2084 25.3535 31.9795 25.3535C33.7506 25.3535 35.1741 25.8997 36.25 26.9922C37.3259 28.0846 37.8721 29.5909 37.8721 31.4282C37.8721 33.2655 37.3259 34.7386 36.25 35.8477C35.1575 36.9401 33.7506 37.5029 31.9795 37.5029V37.4863ZM34.992 31.4116C34.992 28.995 33.8333 27.6874 31.9795 27.6874C30.1256 27.6874 28.967 29.0116 28.967 31.4116C28.967 33.8117 30.0925 35.1359 31.9795 35.1359C33.8664 35.1359 34.992 33.7952 34.992 31.4116Z" fill="#808080"/>
<path d="M49.8709 26.9931C50.7978 28.0856 51.2612 29.5918 51.2612 31.4291C51.2612 33.2664 50.7978 34.7396 49.8709 35.8486C48.9274 36.941 47.6694 37.5038 46.0638 37.5038C44.4583 37.5038 43.2996 36.9245 42.4554 35.7162V41.6253H39.625V25.6193H42.3727V27.2745C43.2003 26 44.4417 25.3379 46.0804 25.3379C47.7191 25.3379 48.9439 25.8676 49.8709 26.9766V26.9931ZM45.3852 35.1534C46.3121 35.1534 47.0404 34.8058 47.5866 34.1437C48.1163 33.4982 48.3812 32.5381 48.3812 31.3298C48.3812 28.9132 47.2887 27.6883 45.3852 27.6883C43.4817 27.6883 42.3892 28.9959 42.3892 31.4126C42.3892 32.6209 42.6541 33.5478 43.2003 34.1768C43.73 34.8223 44.4748 35.1534 45.3852 35.1534Z" fill="#808080"/>
<path d="M53.0508 37.2209V21.2148H55.8812V37.2209H53.0508Z" fill="#808080"/>
<path d="M69.1357 32.3045H60.4458C60.6444 34.3074 61.7534 35.3005 63.4583 35.3005C64.7659 35.3005 65.6432 34.7377 66.1066 33.6453H68.8212C68.2088 36.0122 66.1894 37.5185 63.4252 37.5185C61.7038 37.5185 60.2968 36.9557 59.254 35.8633C58.1947 34.7708 57.6484 33.2977 57.6484 31.4438C57.6484 29.59 58.1781 28.1665 59.2209 27.0244C60.2802 25.9319 61.6541 25.3691 63.3755 25.3691C65.097 25.3691 66.5205 25.9485 67.5467 27.0906C68.573 28.2327 69.1026 29.772 69.1026 31.6259V32.3045H69.1357ZM60.4623 30.3183H66.2887C66.0404 28.6299 65.0142 27.554 63.3755 27.554C61.8196 27.554 60.7437 28.4644 60.4623 30.3183Z" fill="#808080"/>
<defs>
<filter id="filter0_f_857_3150" x="178.176" y="0.408005" width="44.9145" height="38.2504" filterUnits="userSpaceOnUse" color-interpolation-filters="sRGB">
<feFlood flood-opacity="0" result="BackgroundImageFix"/>
<feBlend mode="normal" in="SourceGraphic" in2="BackgroundImageFix" result="shape"/>
<feGaussianBlur stdDeviation="5.85361" result="effect1_foregroundBlur_857_3150"/>
</filter>
</defs>
</svg>
