<svg width="17" height="20" viewBox="0 0 17 20" fill="none" xmlns="http://www.w3.org/2000/svg">
<path d="M3.54332 0.765625H13.0766V4.59249H16.4979V19.7656H3.54332C3.06635 19.7656 2.67969 19.379 2.67969 18.902V1.62926C2.67969 1.15229 3.06635 0.765625 3.54332 0.765625Z" fill="#E1E5E6"/>
<path d="M13.0444 10.2656C13.5214 10.2656 13.908 10.6523 13.908 11.1293V16.3111C13.908 16.7881 13.5214 17.1747 13.0444 17.1747H0.95348C0.476507 17.1747 0.0898438 16.7881 0.0898438 16.3111V11.1293C0.0898437 10.6523 0.476507 10.2656 0.95348 10.2656H13.0444ZM3.99645 12.3564H2.99492V15.4474H3.61903V14.2814H4.02597C4.30851 14.2814 4.52427 14.2667 4.67327 14.2372C4.78292 14.2133 4.8908 14.1644 4.99693 14.0906C5.10305 14.0168 5.19056 13.9153 5.25943 13.786C5.32831 13.6566 5.36275 13.4971 5.36275 13.3073C5.36275 13.0613 5.30301 12.8607 5.18353 12.7054C5.06405 12.55 4.91575 12.4492 4.73864 12.4028C4.62337 12.3719 4.37598 12.3564 3.99645 12.3564ZM7.01369 12.3564H5.873V15.4474H7.04743C7.27796 15.4474 7.4621 15.4257 7.59985 15.3821C7.784 15.323 7.93018 15.2408 8.03842 15.1354C8.1818 14.9962 8.29214 14.8142 8.36945 14.5893C8.43271 14.4051 8.46433 14.1859 8.46433 13.9314C8.46433 13.6419 8.4306 13.3983 8.36313 13.2009C8.29565 13.0034 8.19726 12.8364 8.06794 12.7001C7.93862 12.5637 7.78329 12.4689 7.60196 12.4154C7.46702 12.3761 7.27093 12.3564 7.01369 12.3564ZM11.1168 12.3564H8.99778V15.4474H9.62189V14.1339H10.9123V13.611H9.62189V12.8793H11.1168V12.3564ZM6.77754 12.8793C7.03197 12.8793 7.20275 12.8891 7.28991 12.9088C7.40658 12.9341 7.50286 12.9826 7.57877 13.0543C7.65467 13.126 7.71371 13.2258 7.75588 13.3537C7.79805 13.4816 7.81914 13.6651 7.81914 13.904C7.81914 14.143 7.79805 14.3317 7.75588 14.4702C7.71371 14.6086 7.65924 14.7081 7.59247 14.7685C7.5257 14.829 7.44172 14.8718 7.34051 14.8971C7.2632 14.9168 7.13739 14.9266 6.96309 14.9266H6.49711V12.8793H6.77754ZM3.92054 12.8793C4.14545 12.8793 4.29515 12.8863 4.36965 12.9004C4.47086 12.9187 4.55449 12.9643 4.62056 13.0374C4.68663 13.1105 4.71966 13.2033 4.71966 13.3158C4.71966 13.4071 4.69612 13.4873 4.64903 13.5561C4.60194 13.625 4.53692 13.6756 4.45399 13.7079C4.37106 13.7403 4.2066 13.7564 3.9606 13.7564H3.61903V12.8793H3.92054Z" fill="#FF2100"/>
</svg>
