<svg width="41" height="41" viewBox="0 0 41 41" fill="none" xmlns="http://www.w3.org/2000/svg">
<ellipse cx="20.4577" cy="20.5" rx="20.1257" ry="20" fill="#667080"/>
<path d="M28.5068 29.5V27.5C28.5068 26.4391 28.0827 25.4217 27.3279 24.6716C26.573 23.9214 25.5492 23.5 24.4817 23.5H16.4314C15.3639 23.5 14.34 23.9214 13.5852 24.6716C12.8303 25.4217 12.4063 26.4391 12.4062 27.5V29.5" stroke="#EEF1F4" stroke-width="2" stroke-linecap="round" stroke-linejoin="round"/>
<path d="M20.4587 19.5C22.6818 19.5 24.4839 17.7091 24.4839 15.5C24.4839 13.2909 22.6818 11.5 20.4587 11.5C18.2357 11.5 16.4336 13.2909 16.4336 15.5C16.4336 17.7091 18.2357 19.5 20.4587 19.5Z" stroke="#EEF1F4" stroke-width="2" stroke-linecap="round" stroke-linejoin="round"/>
</svg>
