<svg width="63" height="41" viewBox="0 0 63 41" fill="none" xmlns="http://www.w3.org/2000/svg">
<mask id="path-1-inside-1_945_3957" fill="white">
<path d="M40.668 15C40.668 17.2091 38.8771 19 36.668 19L26.3019 19C24.0927 19 22.3019 17.2091 22.3019 15L22.3019 4.63391C22.3019 2.42477 24.0927 0.63391 26.3019 0.63391L36.668 0.633911C38.8771 0.633911 40.668 2.42477 40.668 4.63391L40.668 15Z"/>
</mask>
<path d="M40.668 19L22.3019 19L40.668 19ZM22.3019 4.63391C22.3019 1.87249 24.5405 -0.36609 27.3019 -0.36609L35.668 -0.366089C38.4294 -0.366089 40.668 1.87249 40.668 4.63391C40.668 2.97706 38.8771 1.63391 36.668 1.63391L26.3019 1.63391C24.0927 1.63391 22.3019 2.97705 22.3019 4.63391ZM40.668 0.633911L40.668 19L40.668 0.633911ZM22.3019 19L22.3019 0.63391L22.3019 19Z" fill="black" mask="url(#path-1-inside-1_945_3957)"/>
<path d="M31.8418 4.99485C31.6466 4.79959 31.33 4.79959 31.1347 4.99485L27.9527 8.17683C27.7575 8.37209 27.7575 8.68868 27.9527 8.88394C28.148 9.0792 28.4646 9.0792 28.6599 8.88394L31.4883 6.05551L34.3167 8.88394C34.512 9.0792 34.8286 9.0792 35.0238 8.88394C35.2191 8.68868 35.2191 8.37209 35.0238 8.17683L31.8418 4.99485ZM31.9883 14.2852L31.9883 5.3484L30.9883 5.3484L30.9883 14.2852L31.9883 14.2852Z" fill="black"/>
<path d="M2.988 23.454V31.392C2.988 32.508 3.258 33.336 3.798 33.876C4.35 34.416 5.112 34.686 6.084 34.686C7.044 34.686 7.794 34.416 8.334 33.876C8.886 33.336 9.162 32.508 9.162 31.392V23.454H10.8V31.374C10.8 32.418 10.59 33.3 10.17 34.02C9.75 34.728 9.18 35.256 8.46 35.604C7.752 35.952 6.954 36.126 6.066 36.126C5.178 36.126 4.374 35.952 3.654 35.604C2.946 35.256 2.382 34.728 1.962 34.02C1.554 33.3 1.35 32.418 1.35 31.374V23.454H2.988ZM14.8105 27.954C15.1345 27.39 15.6145 26.922 16.2505 26.55C16.8985 26.166 17.6485 25.974 18.5005 25.974C19.3765 25.974 20.1685 26.184 20.8765 26.604C21.5965 27.024 22.1605 27.618 22.5685 28.386C22.9765 29.142 23.1805 30.024 23.1805 31.032C23.1805 32.028 22.9765 32.916 22.5685 33.696C22.1605 34.476 21.5965 35.082 20.8765 35.514C20.1685 35.946 19.3765 36.162 18.5005 36.162C17.6605 36.162 16.9165 35.976 16.2685 35.604C15.6325 35.22 15.1465 34.746 14.8105 34.182V40.68H13.1725V26.136H14.8105V27.954ZM21.5065 31.032C21.5065 30.288 21.3565 29.64 21.0565 29.088C20.7565 28.536 20.3485 28.116 19.8325 27.828C19.3285 27.54 18.7705 27.396 18.1585 27.396C17.5585 27.396 17.0005 27.546 16.4845 27.846C15.9805 28.134 15.5725 28.56 15.2605 29.124C14.9605 29.676 14.8105 30.318 14.8105 31.05C14.8105 31.794 14.9605 32.448 15.2605 33.012C15.5725 33.564 15.9805 33.99 16.4845 34.29C17.0005 34.578 17.5585 34.722 18.1585 34.722C18.7705 34.722 19.3285 34.578 19.8325 34.29C20.3485 33.99 20.7565 33.564 21.0565 33.012C21.3565 32.448 21.5065 31.788 21.5065 31.032ZM26.6145 22.68V36H24.9765V22.68H26.6145ZM33.3482 36.162C32.4242 36.162 31.5842 35.952 30.8282 35.532C30.0842 35.112 29.4962 34.518 29.0642 33.75C28.6442 32.97 28.4342 32.07 28.4342 31.05C28.4342 30.042 28.6502 29.154 29.0822 28.386C29.5262 27.606 30.1262 27.012 30.8822 26.604C31.6382 26.184 32.4842 25.974 33.4202 25.974C34.3562 25.974 35.2022 26.184 35.9582 26.604C36.7142 27.012 37.3082 27.6 37.7402 28.368C38.1842 29.136 38.4062 30.03 38.4062 31.05C38.4062 32.07 38.1782 32.97 37.7222 33.75C37.2782 34.518 36.6722 35.112 35.9042 35.532C35.1362 35.952 34.2842 36.162 33.3482 36.162ZM33.3482 34.722C33.9362 34.722 34.4882 34.584 35.0042 34.308C35.5202 34.032 35.9342 33.618 36.2462 33.066C36.5702 32.514 36.7322 31.842 36.7322 31.05C36.7322 30.258 36.5762 29.586 36.2642 29.034C35.9522 28.482 35.5442 28.074 35.0402 27.81C34.5362 27.534 33.9902 27.396 33.4022 27.396C32.8022 27.396 32.2502 27.534 31.7462 27.81C31.2542 28.074 30.8582 28.482 30.5582 29.034C30.2582 29.586 30.1082 30.258 30.1082 31.05C30.1082 31.854 30.2522 32.532 30.5402 33.084C30.8402 33.636 31.2362 34.05 31.7282 34.326C32.2202 34.59 32.7602 34.722 33.3482 34.722ZM39.5879 31.032C39.5879 30.024 39.7919 29.142 40.1999 28.386C40.6079 27.618 41.1659 27.024 41.8739 26.604C42.5939 26.184 43.3919 25.974 44.2679 25.974C45.1319 25.974 45.8819 26.16 46.5179 26.532C47.1539 26.904 47.6279 27.372 47.9399 27.936V26.136H49.5959V36H47.9399V34.164C47.6159 34.74 47.1299 35.22 46.4819 35.604C45.8459 35.976 45.1019 36.162 44.2499 36.162C43.3739 36.162 42.5819 35.946 41.8739 35.514C41.1659 35.082 40.6079 34.476 40.1999 33.696C39.7919 32.916 39.5879 32.028 39.5879 31.032ZM47.9399 31.05C47.9399 30.306 47.7899 29.658 47.4899 29.106C47.1899 28.554 46.7819 28.134 46.2659 27.846C45.7619 27.546 45.2039 27.396 44.5919 27.396C43.9799 27.396 43.4219 27.54 42.9179 27.828C42.4139 28.116 42.0119 28.536 41.7119 29.088C41.4119 29.64 41.2619 30.288 41.2619 31.032C41.2619 31.788 41.4119 32.448 41.7119 33.012C42.0119 33.564 42.4139 33.99 42.9179 34.29C43.4219 34.578 43.9799 34.722 44.5919 34.722C45.2039 34.722 45.7619 34.578 46.2659 34.29C46.7819 33.99 47.1899 33.564 47.4899 33.012C47.7899 32.448 47.9399 31.794 47.9399 31.05ZM51.392 31.032C51.392 30.024 51.596 29.142 52.004 28.386C52.412 27.618 52.97 27.024 53.678 26.604C54.398 26.184 55.202 25.974 56.09 25.974C56.858 25.974 57.572 26.154 58.232 26.514C58.892 26.862 59.396 27.324 59.744 27.9V22.68H61.4V36H59.744V34.146C59.42 34.734 58.94 35.22 58.304 35.604C57.668 35.976 56.924 36.162 56.072 36.162C55.196 36.162 54.398 35.946 53.678 35.514C52.97 35.082 52.412 34.476 52.004 33.696C51.596 32.916 51.392 32.028 51.392 31.032ZM59.744 31.05C59.744 30.306 59.594 29.658 59.294 29.106C58.994 28.554 58.586 28.134 58.07 27.846C57.566 27.546 57.008 27.396 56.396 27.396C55.784 27.396 55.226 27.54 54.722 27.828C54.218 28.116 53.816 28.536 53.516 29.088C53.216 29.64 53.066 30.288 53.066 31.032C53.066 31.788 53.216 32.448 53.516 33.012C53.816 33.564 54.218 33.99 54.722 34.29C55.226 34.578 55.784 34.722 56.396 34.722C57.008 34.722 57.566 34.578 58.07 34.29C58.586 33.99 58.994 33.564 59.294 33.012C59.594 32.448 59.744 31.794 59.744 31.05Z" fill="black"/>
</svg>
