<svg width="11" height="7" viewBox="0 0 11 7" fill="none" xmlns="http://www.w3.org/2000/svg">
<path d="M5.47508 6.39197C8.08259 6.39197 10.1963 3.55927 10.1963 3.55927C10.1963 3.55927 8.08259 0.726562 5.47508 0.726562C2.86758 0.726562 0.753906 3.55927 0.753906 3.55927C0.753906 3.55927 2.86758 6.39197 5.47508 6.39197Z" stroke="white" stroke-width="0.708176" stroke-linejoin="round"/>
<path d="M5.47717 4.73949C5.7902 4.73949 6.09041 4.61514 6.31176 4.39379C6.53311 4.17245 6.65746 3.87223 6.65746 3.5592C6.65746 3.24617 6.53311 2.94595 6.31176 2.72461C6.09041 2.50326 5.7902 2.37891 5.47717 2.37891C5.16414 2.37891 4.86392 2.50326 4.64258 2.72461C4.42123 2.94595 4.29688 3.24617 4.29688 3.5592C4.29688 3.87223 4.42123 4.17245 4.64258 4.39379C4.86392 4.61514 5.16414 4.73949 5.47717 4.73949Z" stroke="white" stroke-width="0.708176" stroke-linejoin="round"/>
</svg>
